<svg height="512" viewBox="0 0 64 64" width="512" xmlns="http://www.w3.org/2000/svg"><g id="Layer_31" data-name="Layer 31"><path d="m27 25h32a2 2 0 0 1 2 2v26a2 2 0 0 1 -2 2h-32a0 0 0 0 1 0 0v-30a0 0 0 0 1 0 0z" fill="#2488ff"/><path d="m27 25v30h-22a2.006 2.006 0 0 1 -2-2v-13.41a1.964 1.964 0 0 1 .09-.59h17.91a2.006 2.006 0 0 0 2-2v-12z" fill="#57a4ff"/><path d="m27 45v10h32a2 2 0 0 0 2-2v-8z" fill="#006df0"/><path d="m3 45v8a2.006 2.006 0 0 0 2 2h22v-10z" fill="#2488ff"/><path d="m21 39a2.006 2.006 0 0 0 2-2v-12h-6.63a7.988 7.988 0 0 0 -6.37 3.181v10.819z" fill="#d1d3d4"/><path d="m10 28.181c-.122.161-.25.317-.36.489l-6.32 9.84a1.967 1.967 0 0 0 -.228.49h6.908z" fill="#58595b"/><path d="m54 13c0 4.54-6.77 15.14-9.17 18.76a.99.99 0 0 1 -1.66 0c-2.4-3.62-9.17-14.22-9.17-18.76a10 10 0 0 1 20 0z" fill="#ed1c24"/><path d="m44 3a10.007 10.007 0 0 0 -1 .051 10 10 0 0 1 9 9.949c0 4.443-6.474 14.674-9 18.5l.17.258a.99.99 0 0 0 1.66 0c2.4-3.618 9.17-14.218 9.17-18.758a10 10 0 0 0 -10-10z" fill="#d80027"/><circle cx="44" cy="13" fill="#f1f2f2" r="4"/><circle cx="15" cy="55" fill="#58595b" r="6"/><circle cx="15" cy="55" fill="#f1f2f2" r="2"/><circle cx="47" cy="55" fill="#58595b" r="6"/><circle cx="47" cy="55" fill="#f1f2f2" r="2"/><path d="m49 33v4a2 2 0 0 0 2 2h10v-8h-10a2 2 0 0 0 -2 2z" fill="#ffcd00"/><path d="m37 39a2 2 0 0 0 2-2v-4a2 2 0 0 0 -2-2h-10v8z" fill="#ffcd00"/><path d="m57 49a2 2 0 0 0 2 2h2v-4h-2a2 2 0 0 0 -2 2z" fill="#ed1c24"/><path d="m7 49a2 2 0 0 0 -2-2h-2v4h2a2 2 0 0 0 2-2z" fill="#f1f2f2"/><g fill="#231f20"><path d="m49 13a5 5 0 1 0 -5 5 5.006 5.006 0 0 0 5-5zm-5 3a3 3 0 1 1 3-3 3 3 0 0 1 -3 3z"/><path d="m15 52a3 3 0 1 0 3 3 3 3 0 0 0 -3-3zm0 4a1 1 0 1 1 1-1 1 1 0 0 1 -1 1z"/><path d="m47 52a3 3 0 1 0 3 3 3 3 0 0 0 -3-3zm0 4a1 1 0 1 1 1-1 1 1 0 0 1 -1 1z"/><path d="m59 24h-8.24c2.25-4.06 4.24-8.38 4.24-11a11 11 0 0 0 -22 0c0 2.62 1.99 6.94 4.24 11h-20.87a8.922 8.922 0 0 0 -7.07 3.45 8.181 8.181 0 0 0 -.5.68l-6.32 9.83a3.148 3.148 0 0 0 -.31.64v.03a2.811 2.811 0 0 0 -.17.96v13.41a3.009 3.009 0 0 0 3 3h3.08a6.991 6.991 0 0 0 13.84 0h18.16a6.991 6.991 0 0 0 13.84 0h5.08a3.009 3.009 0 0 0 3-3v-26a3.009 3.009 0 0 0 -3-3zm-24-11a9 9 0 0 1 18 0c0 3.43-4.65 11.65-9 18.21-4.35-6.56-9-14.78-9-18.21zm-7 19h9a1 1 0 0 1 1 1v4a1 1 0 0 1 -1 1h-9zm-17-3.5a6.969 6.969 0 0 1 5.37-2.5h5.63v11a1 1 0 0 1 -1 1h-10zm-2 3.02v6.48h-4.16zm-5 16.48h1a1 1 0 0 1 0 2h-1zm11 12a5 5 0 1 1 5-5 5 5 0 0 1 -5 5zm11-6h-4.08a6.991 6.991 0 0 0 -13.84 0h-3.08a1 1 0 0 1 -1-1v-1h1a3 3 0 0 0 0-6h-1v-6h17a3.009 3.009 0 0 0 3-3v-11h2zm21 6a5 5 0 1 1 5-5 5 5 0 0 1 -5 5zm13-10h-1a1 1 0 0 1 0-2h1zm0-12h-9a1 1 0 0 1 -1-1v-4a1 1 0 0 1 1-1h9zm0-8h-9a3.009 3.009 0 0 0 -3 3v4a3.009 3.009 0 0 0 3 3h9v6h-1a3 3 0 0 0 0 6h1v1a1 1 0 0 1 -1 1h-5.08a6.991 6.991 0 0 0 -13.84 0h-12.08v-14h9a3.009 3.009 0 0 0 3-3v-4a3.009 3.009 0 0 0 -3-3h-9v-4h10.39c1.47 2.53 2.94 4.81 3.94 6.32a2.012 2.012 0 0 0 3.34 0c1-1.51 2.47-3.79 3.94-6.32h9.39a1 1 0 0 1 1 1z"/><path d="m55 44h-22a1 1 0 0 0 0 2h22a1 1 0 0 0 0-2z"/><path d="m11 46h12a1 1 0 0 0 0-2h-12a1 1 0 0 0 0 2z"/></g></g></svg>